<?xml version="1.0" encoding="utf-8"?>
<!-- Generator: Adobe Illustrator 19.0.0, SVG Export Plug-In . SVG Version: 6.00 Build 0)  -->
<svg version="1.1" id="Слой_1" xmlns="http://www.w3.org/2000/svg" xmlns:xlink="http://www.w3.org/1999/xlink" x="0px" y="0px"
	 viewBox="69 -108.9 258.1 336.9" style="enable-background:new 69 -108.9 258.1 336.9;" xml:space="preserve">
<style type="text/css">
	.st0{fill:#FFFFFF;}
</style>
<path class="st0" d="M150.5,96.8h37.8c41.3,0,73.1-8.8,95.3-26.3c22.2-17.5,33.3-42.5,33.3-75c0-62.4-40.1-93.6-120.4-93.6h-83.3
	V64.6H80.8v32h32.3v31H80.7v26.5h32.5v69h37.4v-69h151.6v-26.5H150.5V96.8z M150.5-65.8h41.7c29.4,0,51.1,5.2,65,15.6
	c13.9,10.4,20.9,26.2,20.9,47.5c0,23.6-7.4,40.7-22.2,51.4c-14.8,10.7-38.7,16-71.9,16h-33.6V-65.8z"/>
</svg>
