<?xml version="1.0" encoding="utf-8"?>
<!-- Generator: Adobe Illustrator 19.0.0, SVG Export Plug-In . SVG Version: 6.00 Build 0)  -->
<svg version="1.1" id="Слой_1" xmlns="http://www.w3.org/2000/svg" xmlns:xlink="http://www.w3.org/1999/xlink" x="0px" y="0px"
	 viewBox="133 -151.8 258.1 336.9" style="enable-background:new 133 -151.8 258.1 336.9;" xml:space="preserve">
<style type="text/css">
	.st0{fill:#FFFFFF;}
</style>
<path id="path26" class="st0" d="M381.7-100.2c-5.5-14.1-13.4-22.3-21.9-30.2s-23.3-15.5-35.7-18.1c-9-2.3-22.1-3.3-38.9-3.3H154.4
	V4.3H133v35h21.4v14.2H133v35h21.4v96.6h37.5V88.3h134.3v-35H191.9V39.1h2.3h93.9c36.1,0,62-10.1,78.2-29.7
	c15.4-18.8,24.8-35.2,24.8-64C391.2-71.1,386.6-86.5,381.7-100.2L381.7-100.2z M332.4-11.7L332.4-11.7c-9.3,10.8-21.9,16-43.6,16
	h-94.5l0,0H192V-116h96c15.3,0,26,1.1,31.4,3c9,5.8,16.1,10.1,21.4,19.8c5.5,10.1,8.2,22.2,8.2,35.9
	C348.8-37.5,341.2-22.1,332.4-11.7L332.4-11.7z"/>
</svg>
